HIERARCHY
ROOT Hips
{
    OFFSET 0.000000 0.000000 0.000000
    CHANNELS 6 Xposition Yposition Zposition Zrotation Xrotation Yrotation
    JOINT Spine
    {
        OFFSET -0.000000 0.081317 0.000000
        CHANNELS 3 Zrotation Xrotation Yrotation
        JOINT Spine1
        {
            OFFSET -0.000000 0.225200 0.000000
            CHANNELS 3 Zrotation Xrotation Yrotation
            JOINT Neck
            {
                OFFSET -0.000000 0.224275 0.020389
                CHANNELS 3 Zrotation Xrotation Yrotation
                JOINT Head
                {
                    OFFSET -0.000000 0.138833 -0.019833
                    CHANNELS 3 Zrotation Xrotation Yrotation
                    End Site
                    {
                        OFFSET -0.000000 0.198333 0.000000
                    }
                }
            }
            JOINT LeftShoulder
            {
                OFFSET 0.039732 0.208237 -0.000812
                CHANNELS 3 Zrotation Xrotation Yrotation
                JOINT LeftArm
                {
                    OFFSET 0.110955 0.000000 0.000000
                    CHANNELS 3 Zrotation Xrotation Yrotation
                    JOINT LeftForeArm
                    {
                        OFFSET 0.324523 0.000000 0.000000
                        CHANNELS 3 Zrotation Xrotation Yrotation
                        JOINT LeftHand
                        {
                            OFFSET 0.302601 0.000000 0.000000
                            CHANNELS 3 Zrotation Xrotation Yrotation
                            End Site
                            {
                                OFFSET 0.148750 0.000000 0.000000
                            }
                        }
                    }
                }
            }
            JOINT RightShoulder
            {
                OFFSET -0.039598 0.208237 -0.000812
                CHANNELS 3 Zrotation Xrotation Yrotation
                JOINT RightArm
                {
                    OFFSET -0.110955 0.000000 0.000000
                    CHANNELS 3 Zrotation Xrotation Yrotation
                    JOINT RightForeArm
                    {
                        OFFSET -0.324523 0.000000 0.000000
                        CHANNELS 3 Zrotation Xrotation Yrotation
                        JOINT RightHand
                        {
                            OFFSET -0.302601 0.000000 0.000000
                            CHANNELS 3 Zrotation Xrotation Yrotation
                            End Site
                            {
                                OFFSET -0.148750 0.000000 0.000000
                            }
                        }
                    }
                }
            }
        }
    }
    JOINT LeftUpLeg
    {
        OFFSET 0.099167 0.000000 0.000000
        CHANNELS 3 Zrotation Xrotation Yrotation
        JOINT LeftLeg
        {
            OFFSET -0.000000 -0.380753 0.000000
            CHANNELS 3 Zrotation Xrotation Yrotation
            JOINT LeftFoot
            {
                OFFSET -0.000000 -0.440093 0.000000
                CHANNELS 3 Zrotation Xrotation Yrotation
                JOINT LeftToeBase
                {
                    OFFSET -0.000000 -0.064458 0.148750
                    CHANNELS 3 Zrotation Xrotation Yrotation
                    End Site
                    {
                        OFFSET -0.000000 0.000000 0.039667
                    }
                }
            }
        }
    }
    JOINT RightUpLeg
    {
        OFFSET -0.099167 0.000000 0.000000
        CHANNELS 3 Zrotation Xrotation Yrotation
        JOINT RightLeg
        {
            OFFSET -0.000000 -0.380753 0.000000
            CHANNELS 3 Zrotation Xrotation Yrotation
            JOINT RightFoot
            {
                OFFSET -0.000000 -0.440093 0.000000
                CHANNELS 3 Zrotation Xrotation Yrotation
                JOINT RightToeBase
                {
                    OFFSET -0.000000 -0.064458 0.148750
                    CHANNELS 3 Zrotation Xrotation Yrotation
                    End Site
                    {
                        OFFSET -0.000000 0.000000 0.039667
                    }
                }
            }
        }
    }
}
MOTION
Frames:    5
Frame Time:    0.010000
-0.461179    0.863467    -0.192767    1.027157    2.955386    -34.517242    1.420440    -26.060219    -4.587532    -2.180036    36.687435    -0.904914    -7.909486    23.960768    22.339130    -17.312540    -9.585435    18.903847    -15.127838    -0.633258    -15.807777    -53.489700    13.708084    -22.379459    1.547566    -44.828823    -79.420517    -4.815370    -43.518520    -12.826975    10.266630    -2.079361    12.975160    30.796499    65.188507    11.281381    -10.239446    -25.099905    84.018196    31.944948    -18.100075    -6.047557    26.417294    -16.055202    41.486702    0.531944    30.998690    37.374084    1.957058    23.673855    -44.041138    0.000000    0.000000    0.000000    -18.410378    -16.861090    -19.182207    5.802624    37.914989    1.609440    0.100084    4.914210    -4.043859    0.000000    0.000000    0.000000    
-0.461275    0.863464    -0.192664    1.026527    2.956827    -34.519165    1.423253    -26.064587    -4.582450    -2.183368    36.700932    -0.902012    -7.883590    23.962055    22.330221    -17.319859    -9.592310    18.893677    -15.127923    -0.623661    -15.802434    -53.462696    13.711971    -22.390915    1.458351    -44.829487    -79.485703    -4.649434    -43.589001    -12.707244    10.275482    -2.089873    12.970538    30.789427    65.203255    11.282204    -10.235436    -25.099752    84.025658    31.918587    -18.110434    -6.082864    26.404867    -16.036026    41.472084    0.661920    30.918325    36.982040    1.779548    23.971331    -43.975460    0.000000    0.000000    0.000000    -18.405397    -16.851204    -19.180912    5.804626    37.910267    1.592825    0.083018    4.908612    -4.033855    0.000000    0.000000    0.000000    
-0.461346    0.863481    -0.192564    1.028543    2.960502    -34.520115    1.428889    -26.069254    -4.578592    -2.180627    36.707668    -0.901971    -7.887818    23.946676    22.329781    -17.295881    -9.584904    18.900408    -15.123043    -0.632804    -15.809647    -53.476440    13.702540    -22.373293    1.527396    -44.817257    -79.420692    -4.875478    -43.512325    -12.875555    10.260921    -2.082752    12.959238    30.775602    65.213692    11.312527    -10.255504    -25.115263    84.017525    31.920809    -18.110706    -6.083211    26.345097    -16.089920    41.621883    0.935769    30.915190    36.951866    1.820237    24.056149    -44.229660    0.000000    0.000000    0.000000    -18.409473    -16.845699    -19.183718    5.806130    37.908138    1.607976    0.111835    4.923690    -4.036238    0.000000    0.000000    0.000000    
-0.461433    0.863500    -0.192466    1.032503    2.959845    -34.523220    1.437112    -26.095243    -4.555056    -2.217147    36.751667    -0.881692    -7.807352    23.945066    22.314676    -17.329393    -9.585244    18.883305    -15.066666    -0.614688    -15.845613    -53.471069    13.710578    -22.386633    1.504382    -44.847027    -79.451889    -4.763340    -43.567505    -12.803310    10.293889    -2.094007    12.948930    30.762848    65.229973    11.308991    -10.256598    -25.135736    84.022141    31.925369    -18.132349    -6.089067    26.407541    -16.030437    41.470646    0.531876    30.984655    37.372608    1.952079    23.672211    -44.023693    0.000000    0.000000    0.000000    -18.412878    -16.836620    -19.191542    5.800205    37.906704    1.602251    0.151987    4.920878    -4.017453    0.000000    0.000000    0.000000    
-0.461362    0.863559    -0.192237    1.042776    2.933457    -34.492363    1.447683    -26.059366    -4.593211    -2.240769    36.726219    -0.887858    -7.900310    23.932850    22.332918    -17.252808    -9.611635    18.909317    -15.125731    -0.604816    -15.808650    -53.433746    13.703064    -22.386600    1.474275    -44.825520    -79.471382    -4.763318    -43.563053    -12.814132    10.265225    -2.086798    12.962170    30.790279    65.220268    11.302430    -10.259972    -25.125040    84.016922    31.930569    -18.123842    -6.105700    26.268648    -16.073196    41.529255    0.935473    30.884613    36.988060    1.799583    24.064177    -44.197697    0.000000    0.000000    0.000000    -18.466635    -16.787064    -19.246798    5.809883    37.893494    1.614091    0.105378    4.931155    -4.003453    0.000000    0.000000    0.000000    
